<?xml version="1.0" encoding="UTF-8" standalone="no"?>
<!DOCTYPE svg PUBLIC "-//W3C//DTD SVG 1.1//EN"
 "http://www.w3.org/Graphics/SVG/1.1/DTD/svg11.dtd">
<!-- Generated by graphviz version 2.38.0 (20140413.2041)
 -->
<!-- Title: snakemake_dag Pages: 1 -->
<svg width="412pt" height="476pt"
 viewBox="0.00 0.00 411.86 476.00" xmlns="http://www.w3.org/2000/svg" xmlns:xlink="http://www.w3.org/1999/xlink">
<g id="graph0" class="graph" transform="scale(1 1) rotate(0) translate(4 472)">
<title>snakemake_dag</title>
<polygon fill="white" stroke="none" points="-4,4 -4,-472 407.855,-472 407.855,4 -4,4"/>
<!-- 0 -->
<g id="node1" class="node"><title>0</title>
<path fill="none" stroke="#d8ac56" stroke-width="2" stroke-dasharray="5,2" d="M207.983,-36C207.983,-36 177.983,-36 177.983,-36 171.983,-36 165.983,-30 165.983,-24 165.983,-24 165.983,-12 165.983,-12 165.983,-6 171.983,-0 177.983,-0 177.983,-0 207.983,-0 207.983,-0 213.983,-0 219.983,-6 219.983,-12 219.983,-12 219.983,-24 219.983,-24 219.983,-30 213.983,-36 207.983,-36"/>
<text text-anchor="middle" x="192.983" y="-15" font-family="sans" font-size="10.00">all</text>
</g>
<!-- 1 -->
<g id="node2" class="node"><title>1</title>
<path fill="none" stroke="#d85656" stroke-width="2" stroke-dasharray="5,2" d="M110.983,-180C110.983,-180 80.9828,-180 80.9828,-180 74.9828,-180 68.9828,-174 68.9828,-168 68.9828,-168 68.9828,-156 68.9828,-156 68.9828,-150 74.9828,-144 80.9828,-144 80.9828,-144 110.983,-144 110.983,-144 116.983,-144 122.983,-150 122.983,-156 122.983,-156 122.983,-168 122.983,-168 122.983,-174 116.983,-180 110.983,-180"/>
<text text-anchor="middle" x="95.9828" y="-159" font-family="sans" font-size="10.00">VISION</text>
</g>
<!-- 1&#45;&gt;0 -->
<g id="edge1" class="edge"><title>1&#45;&gt;0</title>
<path fill="none" stroke="grey" stroke-width="2" d="M95.9488,-143.803C96.7011,-124.723 100.344,-93.7619 114.983,-72 125.274,-56.7004 141.607,-44.6046 156.674,-35.8548"/>
<polygon fill="grey" stroke="grey" stroke-width="2" points="158.738,-38.715 165.826,-30.8405 155.375,-32.576 158.738,-38.715"/>
</g>
<!-- 2 -->
<g id="node3" class="node"><title>2</title>
<path fill="none" stroke="#56d88a" stroke-width="2" stroke-dasharray="5,2" d="M391.728,-108C391.728,-108 292.238,-108 292.238,-108 286.238,-108 280.238,-102 280.238,-96 280.238,-96 280.238,-84 280.238,-84 280.238,-78 286.238,-72 292.238,-72 292.238,-72 391.728,-72 391.728,-72 397.728,-72 403.728,-78 403.728,-84 403.728,-84 403.728,-96 403.728,-96 403.728,-102 397.728,-108 391.728,-108"/>
<text text-anchor="middle" x="341.983" y="-87" font-family="sans" font-size="10.00">annotate_cluster_de_1vAll</text>
</g>
<!-- 2&#45;&gt;0 -->
<g id="edge2" class="edge"><title>2&#45;&gt;0</title>
<path fill="none" stroke="grey" stroke-width="2" d="M305.533,-71.8761C282.362,-60.9904 252.479,-46.9511 229.328,-36.0749"/>
<polygon fill="grey" stroke="grey" stroke-width="2" points="230.717,-32.8605 220.178,-31.7761 227.74,-39.1961 230.717,-32.8605"/>
</g>
<!-- 3 -->
<g id="node4" class="node"><title>3</title>
<path fill="none" stroke="#56d8a9" stroke-width="2" stroke-dasharray="5,2" d="M249.608,-108C249.608,-108 136.357,-108 136.357,-108 130.357,-108 124.357,-102 124.357,-96 124.357,-96 124.357,-84 124.357,-84 124.357,-78 130.357,-72 136.357,-72 136.357,-72 249.608,-72 249.608,-72 255.608,-72 261.608,-78 261.608,-84 261.608,-84 261.608,-96 261.608,-96 261.608,-102 255.608,-108 249.608,-108"/>
<text text-anchor="middle" x="192.983" y="-87" font-family="sans" font-size="10.00">annotate_cluster_de_genotype</text>
</g>
<!-- 3&#45;&gt;0 -->
<g id="edge3" class="edge"><title>3&#45;&gt;0</title>
<path fill="none" stroke="grey" stroke-width="2" d="M192.983,-71.6966C192.983,-63.9827 192.983,-54.7125 192.983,-46.1124"/>
<polygon fill="grey" stroke="grey" stroke-width="2" points="196.483,-46.1043 192.983,-36.1043 189.483,-46.1044 196.483,-46.1043"/>
</g>
<!-- 4 -->
<g id="node5" class="node"><title>4</title>
<path fill="none" stroke="#d8d356" stroke-width="2" stroke-dasharray="5,2" d="M296.983,-468C296.983,-468 266.983,-468 266.983,-468 260.983,-468 254.983,-462 254.983,-456 254.983,-456 254.983,-444 254.983,-444 254.983,-438 260.983,-432 266.983,-432 266.983,-432 296.983,-432 296.983,-432 302.983,-432 308.983,-438 308.983,-444 308.983,-444 308.983,-456 308.983,-456 308.983,-462 302.983,-468 296.983,-468"/>
<text text-anchor="middle" x="281.983" y="-447" font-family="sans" font-size="10.00">get_data</text>
</g>
<!-- 4&#45;&gt;1 -->
<g id="edge4" class="edge"><title>4&#45;&gt;1</title>
<path fill="none" stroke="grey" stroke-width="2" d="M254.963,-441.586C192.478,-422.647 40.6077,-365.756 4.98278,-252 0.201081,-236.731 -2.99093,-229.872 4.98278,-216 16.6496,-195.704 39.412,-182.451 59.2515,-174.274"/>
<polygon fill="grey" stroke="grey" stroke-width="2" points="60.607,-177.503 68.6947,-170.659 58.1042,-170.966 60.607,-177.503"/>
</g>
<!-- 6 -->
<g id="node7" class="node"><title>6</title>
<path fill="none" stroke="#56d87b" stroke-width="2" stroke-dasharray="5,2" d="M220.983,-396C220.983,-396 190.983,-396 190.983,-396 184.983,-396 178.983,-390 178.983,-384 178.983,-384 178.983,-372 178.983,-372 178.983,-366 184.983,-360 190.983,-360 190.983,-360 220.983,-360 220.983,-360 226.983,-360 232.983,-366 232.983,-372 232.983,-372 232.983,-384 232.983,-384 232.983,-390 226.983,-396 220.983,-396"/>
<text text-anchor="middle" x="205.983" y="-375" font-family="sans" font-size="10.00">SCVI</text>
</g>
<!-- 4&#45;&gt;6 -->
<g id="edge12" class="edge"><title>4&#45;&gt;6</title>
<path fill="none" stroke="grey" stroke-width="2" d="M263.196,-431.697C253.809,-423.05 242.298,-412.449 232.069,-403.027"/>
<polygon fill="grey" stroke="grey" stroke-width="2" points="234.28,-400.305 224.553,-396.104 229.538,-405.454 234.28,-400.305"/>
</g>
<!-- 8 -->
<g id="node9" class="node"><title>8</title>
<path fill="none" stroke="#bed856" stroke-width="2" stroke-dasharray="5,2" d="M230.403,-252C230.403,-252 173.563,-252 173.563,-252 167.563,-252 161.563,-246 161.563,-240 161.563,-240 161.563,-228 161.563,-228 161.563,-222 167.563,-216 173.563,-216 173.563,-216 230.403,-216 230.403,-216 236.403,-216 242.403,-222 242.403,-228 242.403,-228 242.403,-240 242.403,-240 242.403,-246 236.403,-252 230.403,-252"/>
<text text-anchor="middle" x="201.983" y="-231" font-family="sans" font-size="10.00">cluster_together</text>
</g>
<!-- 4&#45;&gt;8 -->
<g id="edge14" class="edge"><title>4&#45;&gt;8</title>
<path fill="none" stroke="grey" stroke-width="2" d="M275.571,-431.849C261.674,-394.675 228.689,-306.439 212.009,-261.82"/>
<polygon fill="grey" stroke="grey" stroke-width="2" points="215.205,-260.374 208.425,-252.232 208.648,-262.825 215.205,-260.374"/>
</g>
<!-- 9 -->
<g id="node10" class="node"><title>9</title>
<path fill="none" stroke="#d8bc56" stroke-width="2" stroke-dasharray="5,2" d="M361.353,-180C361.353,-180 300.613,-180 300.613,-180 294.613,-180 288.613,-174 288.613,-168 288.613,-168 288.613,-156 288.613,-156 288.613,-150 294.613,-144 300.613,-144 300.613,-144 361.353,-144 361.353,-144 367.353,-144 373.353,-150 373.353,-156 373.353,-156 373.353,-168 373.353,-168 373.353,-174 367.353,-180 361.353,-180"/>
<text text-anchor="middle" x="330.983" y="-159" font-family="sans" font-size="10.00">cluster_de_1vAll</text>
</g>
<!-- 4&#45;&gt;9 -->
<g id="edge17" class="edge"><title>4&#45;&gt;9</title>
<path fill="none" stroke="grey" stroke-width="2" d="M309.411,-441.101C330.665,-433.373 358.665,-419.299 371.983,-396 411.684,-326.546 397.847,-291.704 371.983,-216 368.541,-205.927 362.322,-196.284 355.751,-188.05"/>
<polygon fill="grey" stroke="grey" stroke-width="2" points="358.307,-185.654 349.152,-180.323 352.984,-190.2 358.307,-185.654"/>
</g>
<!-- 10 -->
<g id="node11" class="node"><title>10</title>
<path fill="none" stroke="#68d856" stroke-width="2" stroke-dasharray="5,2" d="M248.233,-180C248.233,-180 173.732,-180 173.732,-180 167.732,-180 161.732,-174 161.732,-168 161.732,-168 161.732,-156 161.732,-156 161.732,-150 167.732,-144 173.732,-144 173.732,-144 248.233,-144 248.233,-144 254.233,-144 260.233,-150 260.233,-156 260.233,-156 260.233,-168 260.233,-168 260.233,-174 254.233,-180 248.233,-180"/>
<text text-anchor="middle" x="210.983" y="-159" font-family="sans" font-size="10.00">cluster_de_genotype</text>
</g>
<!-- 4&#45;&gt;10 -->
<g id="edge20" class="edge"><title>4&#45;&gt;10</title>
<path fill="none" stroke="grey" stroke-width="2" d="M285.087,-431.857C291.493,-391.796 302.829,-289.848 267.983,-216 262.667,-204.734 253.788,-194.709 244.602,-186.492"/>
<polygon fill="grey" stroke="grey" stroke-width="2" points="246.798,-183.766 236.884,-180.028 242.303,-189.132 246.798,-183.766"/>
</g>
<!-- 5 -->
<g id="node6" class="node"><title>5</title>
<path fill="none" stroke="#566bd8" stroke-width="2" stroke-dasharray="5,2" d="M55.9828,-252C55.9828,-252 25.9828,-252 25.9828,-252 19.9828,-252 13.9828,-246 13.9828,-240 13.9828,-240 13.9828,-228 13.9828,-228 13.9828,-222 19.9828,-216 25.9828,-216 25.9828,-216 55.9828,-216 55.9828,-216 61.9828,-216 67.9828,-222 67.9828,-228 67.9828,-228 67.9828,-240 67.9828,-240 67.9828,-246 61.9828,-252 55.9828,-252"/>
<text text-anchor="middle" x="40.9828" y="-231" font-family="sans" font-size="10.00">TSNE</text>
</g>
<!-- 5&#45;&gt;1 -->
<g id="edge5" class="edge"><title>5&#45;&gt;1</title>
<path fill="none" stroke="grey" stroke-width="2" d="M54.5783,-215.697C61.1054,-207.389 69.0508,-197.277 76.2294,-188.141"/>
<polygon fill="grey" stroke="grey" stroke-width="2" points="79.1175,-190.13 82.5437,-180.104 73.6133,-185.805 79.1175,-190.13"/>
</g>
<!-- 6&#45;&gt;1 -->
<g id="edge6" class="edge"><title>6&#45;&gt;1</title>
<path fill="none" stroke="grey" stroke-width="2" d="M178.555,-368.58C157.539,-360.614 129.721,-346.474 114.983,-324 88.3816,-283.437 88.9864,-224.518 92.222,-190.345"/>
<polygon fill="grey" stroke="grey" stroke-width="2" points="95.7264,-190.494 93.3339,-180.173 88.7679,-189.734 95.7264,-190.494"/>
</g>
<!-- 6&#45;&gt;5 -->
<g id="edge11" class="edge"><title>6&#45;&gt;5</title>
<path fill="none" stroke="grey" stroke-width="2" d="M178.847,-371.442C151.343,-364.556 109.087,-350.362 81.9828,-324 64.6159,-307.109 53.8835,-281.47 47.7783,-262.042"/>
<polygon fill="grey" stroke="grey" stroke-width="2" points="51.084,-260.875 44.9233,-252.256 44.3641,-262.836 51.084,-260.875"/>
</g>
<!-- 7 -->
<g id="node8" class="node"><title>7</title>
<path fill="none" stroke="#56a9d8" stroke-width="2" stroke-dasharray="5,2" d="M165.983,-324C165.983,-324 135.983,-324 135.983,-324 129.983,-324 123.983,-318 123.983,-312 123.983,-312 123.983,-300 123.983,-300 123.983,-294 129.983,-288 135.983,-288 135.983,-288 165.983,-288 165.983,-288 171.983,-288 177.983,-294 177.983,-300 177.983,-300 177.983,-312 177.983,-312 177.983,-318 171.983,-324 165.983,-324"/>
<text text-anchor="middle" x="150.983" y="-303" font-family="sans" font-size="10.00">UMAP</text>
</g>
<!-- 6&#45;&gt;7 -->
<g id="edge13" class="edge"><title>6&#45;&gt;7</title>
<path fill="none" stroke="grey" stroke-width="2" d="M192.387,-359.697C185.86,-351.389 177.915,-341.277 170.736,-332.141"/>
<polygon fill="grey" stroke="grey" stroke-width="2" points="173.352,-329.805 164.422,-324.104 167.848,-334.13 173.352,-329.805"/>
</g>
<!-- 6&#45;&gt;8 -->
<g id="edge16" class="edge"><title>6&#45;&gt;8</title>
<path fill="none" stroke="grey" stroke-width="2" d="M205.5,-359.871C204.819,-335.67 203.566,-291.211 202.754,-262.393"/>
<polygon fill="grey" stroke="grey" stroke-width="2" points="206.247,-262.087 202.467,-252.189 199.25,-262.284 206.247,-262.087"/>
</g>
<!-- 6&#45;&gt;9 -->
<g id="edge18" class="edge"><title>6&#45;&gt;9</title>
<path fill="none" stroke="grey" stroke-width="2" d="M225.994,-359.775C236.464,-350.032 248.947,-337.185 257.983,-324 287.698,-280.638 310.329,-223.228 322.053,-189.98"/>
<polygon fill="grey" stroke="grey" stroke-width="2" points="325.378,-191.074 325.337,-180.479 318.762,-188.787 325.378,-191.074"/>
</g>
<!-- 6&#45;&gt;10 -->
<g id="edge21" class="edge"><title>6&#45;&gt;10</title>
<path fill="none" stroke="grey" stroke-width="2" d="M217.49,-359.907C235.922,-330.313 268.315,-267.737 250.983,-216 247.632,-205.998 241.567,-196.376 235.155,-188.138"/>
<polygon fill="grey" stroke="grey" stroke-width="2" points="237.803,-185.848 228.716,-180.401 232.422,-190.326 237.803,-185.848"/>
</g>
<!-- 7&#45;&gt;1 -->
<g id="edge7" class="edge"><title>7&#45;&gt;1</title>
<path fill="none" stroke="grey" stroke-width="2" d="M144.348,-287.871C134.892,-263.457 117.451,-218.426 106.299,-189.635"/>
<polygon fill="grey" stroke="grey" stroke-width="2" points="109.516,-188.25 102.641,-180.189 102.989,-190.778 109.516,-188.25"/>
</g>
<!-- 7&#45;&gt;8 -->
<g id="edge15" class="edge"><title>7&#45;&gt;8</title>
<path fill="none" stroke="grey" stroke-width="2" d="M163.59,-287.697C169.58,-279.474 176.859,-269.483 183.462,-260.421"/>
<polygon fill="grey" stroke="grey" stroke-width="2" points="186.461,-262.248 189.521,-252.104 180.804,-258.126 186.461,-262.248"/>
</g>
<!-- 8&#45;&gt;1 -->
<g id="edge8" class="edge"><title>8&#45;&gt;1</title>
<path fill="none" stroke="grey" stroke-width="2" d="M176.052,-215.876C162.321,-206.808 145.276,-195.552 130.447,-185.759"/>
<polygon fill="grey" stroke="grey" stroke-width="2" points="132.286,-182.78 122.013,-180.19 128.429,-188.621 132.286,-182.78"/>
</g>
<!-- 8&#45;&gt;9 -->
<g id="edge19" class="edge"><title>8&#45;&gt;9</title>
<path fill="none" stroke="grey" stroke-width="2" d="M233.54,-215.876C250.641,-206.596 271.965,-195.025 290.301,-185.075"/>
<polygon fill="grey" stroke="grey" stroke-width="2" points="292.184,-188.035 299.305,-180.19 288.846,-181.883 292.184,-188.035"/>
</g>
<!-- 8&#45;&gt;10 -->
<g id="edge22" class="edge"><title>8&#45;&gt;10</title>
<path fill="none" stroke="grey" stroke-width="2" d="M204.207,-215.697C205.199,-207.983 206.391,-198.712 207.497,-190.112"/>
<polygon fill="grey" stroke="grey" stroke-width="2" points="210.98,-190.469 208.784,-180.104 204.037,-189.576 210.98,-190.469"/>
</g>
<!-- 9&#45;&gt;2 -->
<g id="edge9" class="edge"><title>9&#45;&gt;2</title>
<path fill="none" stroke="grey" stroke-width="2" d="M333.702,-143.697C334.914,-135.983 336.371,-126.712 337.722,-118.112"/>
<polygon fill="grey" stroke="grey" stroke-width="2" points="341.2,-118.526 339.295,-108.104 334.285,-117.44 341.2,-118.526"/>
</g>
<!-- 10&#45;&gt;3 -->
<g id="edge10" class="edge"><title>10&#45;&gt;3</title>
<path fill="none" stroke="grey" stroke-width="2" d="M206.533,-143.697C204.528,-135.898 202.114,-126.509 199.882,-117.829"/>
<polygon fill="grey" stroke="grey" stroke-width="2" points="203.261,-116.918 197.381,-108.104 196.482,-118.661 203.261,-116.918"/>
</g>
</g>
</svg>
